<mxfile>
    <diagram id="DbeSObqCEBHpZqMJlmhy" name="Page-1">
        <mxGraphModel dx="1378" dy="628" grid="1" gridSize="10" guides="1" tooltips="1" connect="1" arrows="1" fold="1" page="1" pageScale="1" pageWidth="827" pageHeight="1169" math="0" shadow="0">
            <root>
                <mxCell id="0"/>
                <mxCell id="1" parent="0"/>
                <mxCell id="p_hHbGDJPM_kuDDimLqB-1" value="" style="html=1;verticalLabelPosition=bottom;labelBackgroundColor=#ffffff;verticalAlign=top;shadow=0;dashed=0;strokeWidth=1;shape=mxgraph.ios7.misc.iphone;strokeColor=#c0c0c0;movable=0;resizable=0;rotatable=0;deletable=0;editable=0;connectable=0;" parent="1" vertex="1">
                    <mxGeometry x="144" y="40" width="540" height="1080" as="geometry"/>
                </mxCell>
                <mxCell id="p_hHbGDJPM_kuDDimLqB-2" value="&lt;h1&gt;Reservation: Foo&lt;/h1&gt;" style="text;html=1;align=left;verticalAlign=middle;resizable=0;points=[];autosize=1;" parent="1" vertex="1">
                    <mxGeometry x="200" y="240" width="210" height="50" as="geometry"/>
                </mxCell>
                <mxCell id="12" value="Cras justo odio" style="html=1;strokeColor=none;fillColor=none;fontColor=#212529;perimeter=none;whiteSpace=wrap;resizeWidth=1;align=left;spacing=10;" parent="1" vertex="1">
                    <mxGeometry x="270" y="390" width="200" height="30" as="geometry"/>
                </mxCell>
                <mxCell id="38" value="&lt;font style=&quot;font-size: 14px&quot;&gt;All reservations&lt;/font&gt;" style="rounded=1;html=1;shadow=0;dashed=0;whiteSpace=wrap;fontSize=10;fillColor=#666666;align=center;strokeColor=#4D4D4D;fontColor=#ffffff;" parent="1" vertex="1">
                    <mxGeometry x="200" y="420" width="120" height="40" as="geometry"/>
                </mxCell>
                <mxCell id="39" value="&lt;b style=&quot;font-size: 14px;&quot;&gt;Created&lt;/b&gt;: 1st March 2020, 11:00am" style="text;html=1;align=left;verticalAlign=middle;resizable=0;points=[];autosize=1;fontSize=14;" vertex="1" parent="1">
                    <mxGeometry x="200" y="310" width="230" height="20" as="geometry"/>
                </mxCell>
                <mxCell id="40" value="&lt;b style=&quot;font-size: 14px&quot;&gt;Store&lt;/b&gt;: Amsterdam" style="text;html=1;align=left;verticalAlign=middle;resizable=0;points=[];autosize=1;fontSize=14;" vertex="1" parent="1">
                    <mxGeometry x="200" y="340" width="130" height="20" as="geometry"/>
                </mxCell>
                <mxCell id="41" value="&lt;b style=&quot;font-size: 14px&quot;&gt;Status&lt;/b&gt;: Ready" style="text;html=1;align=left;verticalAlign=middle;resizable=0;points=[];autosize=1;fontSize=14;" vertex="1" parent="1">
                    <mxGeometry x="200" y="370" width="110" height="20" as="geometry"/>
                </mxCell>
            </root>
        </mxGraphModel>
    </diagram>
</mxfile>
